# xmcd
#
# Track frame offsets: 
#        150
#        12124
#        25469
#        34501
#        46872
#        54392
#        65188
#        78414
#        89205
#        110556
#        122703
#        136466
#        147505
#        159322
#        168691
#        181092
#        193303
#        205659
#        211660
#        222642
#        235349
#        247882
#        261853
#        272646
#        284905
#
# Disc length: 3952 seconds
#
# Revision: 0
# Processed by: cddbd v1.5.2PL0 Copyright (c) Steve Scherf et al.
# Submitted via: ExactAudioCopy v1.0b3
#
DISCID=810f6e19
DTITLE=Various Artist - The very best of Bluegrass (Disc1)
DYEAR=2010
DGENRE=Bluegrass
TTITLE0=Lester Flatt and Earl Scruggs - Foggy mountain breakdown
TTITLE1=The Stanley Brothers - I'm a man of constant sorrow
TTITLE2=Bill Monroe And His Bluegrass Boys - Blue moon of Kentucky
TTITLE3=The Blue Sky Boys - Garden in the sky
TTITLE4=Reno and Smiley - Tennessee cut up breakdown
TTITLE5=The Lonesome Pine Fiddlers - Lonesome, sad and blue
TTITLE6=Brown's Ferry Four - Will the circle be unbroken?
TTITLE7=Jim and Jesse - Are you missing me?
TTITLE8=Sonny Terry and Brownie McGhee - Cripple Creek
TTITLE9=Delmore Brothers - You can't do wrong and get by
TTITLE10=Wilma Lee and Stoney Cooper - Sunny side of the mountain
TTITLE11=Molly O'Day and The Cumberland Mountain Boys - Higher in my pra
TTITLE11=yer
TTITLE12=Jim Eanes and The Shenandoah Valley Boys - Tomorrow may be diff
TTITLE12=erent
TTITLE13=Hobo Jack Adkins - Going back to old Kentucky
TTITLE14=Bill Monroe And His  Bluegrass Boys - Molly and tenbrooks
TTITLE15=Reno and Smiley - Crazy finger blues
TTITLE16=Carson Robinson and His Pioneers - Goin' to the barn dance toni
TTITLE16=ght
TTITLE17=The Blue Sky Boys - Ida Red
TTITLE18=Lester Flatt and Earl Scruggs - Old salty dog blues
TTITLE19=The Carter Family - Keep on the sunnyside
TTITLE20=Warde Mainer And His Trio - Little Birdie
TTITLE21=Jim Eanes and The Shenandoah Valley Boys - I cried again
TTITLE22=Wilma Lee and Stoney Cooper - Come walk with me
TTITLE23=The Bailes Brothers - Beautiful brown eyes
TTITLE24=The Stanley Brothers - The fields have turned brown
EXTD=
EXTT0=
EXTT1=
EXTT2=
EXTT3=
EXTT4=
EXTT5=
EXTT6=
EXTT7=
EXTT8=
EXTT9=
EXTT10=
EXTT11=
EXTT12=
EXTT13=
EXTT14=
EXTT15=
EXTT16=
EXTT17=
EXTT18=
EXTT19=
EXTT20=
EXTT21=
EXTT22=
EXTT23=
EXTT24=
PLAYORDER=
